<svg
  xmlns="http://www.w3.org/2000/svg"
  viewBox="-5 0 80 38"  
  width="90"
  height="36.7"
  style="background-color: #003778;">
  <rect width="100%" height="100%" fill="#003778" /> <!-- Background color -->
  <g transform="translate(2, 0)"> <!-- Translates content for padding -->
    <path
      d="M48.3 21.4c-.3-1.6-1-3-1.9-4.2-1.9-2.6-5.1-4.1-9.3-4.1-6.6 0-10.6 4.5-11.8 9.2-1-3.3-4-5.6-7-6.5 2.3-1.7 3.5-4.1 3.5-6.8 0-2.5-1-4.8-2.8-6.3C16.4.4 12.8 0 8.5 0H0v36.7h7.3c2.2 0 4.2 0 6.2-.1 6.2-.2 10.4-3.4 11.8-8 .5 2.1 1.3 3.8 2.5 5.1 2.4 2.6 5.8 3.7 9.3 3.7 4.3 0 7.4-1.2 9.5-3.1l-3-3.5c-1.5 1.2-3.5 1.8-5.7 1.8-4.3 0-6.2-2.7-6.4-5.4h16.9v9.6h6.3V.1h-6.3l-.1 21.3zM6.5 4.9h1.7c1.7 0 3 .2 4 .6 1.9.7 2.8 2.3 2.8 4.1 0 1.6-.6 4.1-4 4.8-.6.1-1.4.2-2.5.2h-2V4.9zm7.1 26.4c-.8.1-1.7.2-2.6.2H6.5v-12h4.1c1.3 0 2.7.1 3.6.3 2.9.8 4.5 2.8 4.5 5.5 0 2.9-1.5 5.3-5.1 6zm18-8.9c.6-2.7 2.5-4.6 5.4-4.6 2.9 0 4.8 1.7 5.4 4.6H31.6zM58.8.1H65v36.5h-6.2V.1z"
      class="svg-bell-logo-path"
      fill="white"  ></path>
  </g>
</svg>